HIERARCHY
ROOT Hips
{
	OFFSET 33.849033 36.703693 -19.447113
	CHANNELS 6 Xposition Yposition Zposition Xrotation Yrotation Zrotation
	JOINT Chest
	{
		OFFSET 8.490570 10.656918 0.703236
		CHANNELS 3 Xrotation Yrotation Zrotation
		JOINT Chest2
		{
			OFFSET -5.995453 20.568802 0.214046
			CHANNELS 3 Xrotation Yrotation Zrotation
			JOINT Chest3
			{
				OFFSET 0.023273 14.926086 -0.176907
				CHANNELS 3 Xrotation Yrotation Zrotation
				JOINT Neck
				{
					OFFSET -0.456390 17.245110 1.007006
					CHANNELS 3 Xrotation Yrotation Zrotation
					JOINT Head
					{
						OFFSET -3.405071 9.874908 -0.848198
						CHANNELS 3 Xrotation Yrotation Zrotation
						End Site
						{
							OFFSET -3.337456 9.899109 -0.834694
						}
					}
				}
				JOINT LeftCollar
				{
					OFFSET -3.138771 12.908463 5.032316
					CHANNELS 3 Xrotation Yrotation Zrotation
					JOINT LeftUpArm
					{
						OFFSET 7.961685 -4.269493 15.062620
						CHANNELS 3 Xrotation Yrotation Zrotation
						JOINT LeftLowArm
						{
							OFFSET 8.416924 -30.597321 11.519033
							CHANNELS 3 Xrotation Yrotation Zrotation
							JOINT LeftHand
							{
								OFFSET -8.449394 -28.776489 1.211951
								CHANNELS 3 Xrotation Yrotation Zrotation
								End Site
								{
									OFFSET -1.846661 -6.289270 0.264882
								}
							}
						}
					}
				}
				JOINT RightCollar
				{
					OFFSET -3.325573 13.394203 -3.368176
					CHANNELS 3 Xrotation Yrotation Zrotation
					JOINT RightUpArm
					{
						OFFSET 8.075779 -3.158020 -15.274326
						CHANNELS 3 Xrotation Yrotation Zrotation
						JOINT RightLowArm
						{
							OFFSET 8.163956 -29.771370 -13.665661
							CHANNELS 3 Xrotation Yrotation Zrotation
							JOINT RightHand
							{
								OFFSET -9.569725 -28.039894 -4.810375
								CHANNELS 3 Xrotation Yrotation Zrotation
								End Site
								{
									OFFSET -2.091549 -6.128399 -1.051369
								}
							}
						}
					}
				}
			}
		}
	}
	JOINT LeftUpLeg
	{
		OFFSET -0.466755 -0.288670 10.005898
		CHANNELS 3 Xrotation Yrotation Zrotation
		JOINT LeftLowLeg
		{
			OFFSET -28.428070 36.378662 10.603153
			CHANNELS 3 Xrotation Yrotation Zrotation
			JOINT LeftFoot
			{
				OFFSET -6.044558 -44.062771 -4.743969
				CHANNELS 3 Xrotation Yrotation Zrotation
				JOINT LeftToe
				{
					OFFSET -17.964458 -11.903837 -9.753807
					CHANNELS 3 Xrotation Yrotation Zrotation
					End Site
					{
						OFFSET -23.022125 2.408411 -4.872410
					}
				}
			}
		}
	}
	JOINT RightUpLeg
	{
		OFFSET 0.466633 0.288517 -10.005911
		CHANNELS 3 Xrotation Yrotation Zrotation
		JOINT RightLowLeg
		{
			OFFSET -44.060463 13.284225 -11.234644
			CHANNELS 3 Xrotation Yrotation Zrotation
			JOINT RightFoot
			{
				OFFSET 28.683819 -31.186510 14.325554
				CHANNELS 3 Xrotation Yrotation Zrotation
				JOINT RightToe
				{
					OFFSET -0.924927 4.518787 23.200897
					CHANNELS 3 Xrotation Yrotation Zrotation
					End Site
					{
						OFFSET -15.286121 6.883766 16.688448
					}
				}
			}
		}
	}
}
MOTION
Frames: 5
Frame Time: 0.033333
44.169968 32.585079 -22.290411 5.699271 -1.505417 -33.471199 -5.246776 2.612409 -11.447791 1.240923 0.066685 8.344331 1.333551 -5.770566 -2.824105 14.154011 14.783367 0.430212 -0.000001 0.000003 -0.000002 -12.340552 -36.031946 -1.754579 -57.374450 -20.087171 -63.510254 -52.144823 11.939441 16.064977 -0.000004 0.000001 -0.000000 8.082913 32.025562 1.288632 53.669810 23.949213 -58.745036 28.547950 -10.881150 -7.632778 0.000001 0.000001 -0.000002 7.118733 -5.029048 28.246157 12.789782 8.872390 -78.518475 20.771782 -16.307649 24.643198 -0.000005 0.000001 -0.000000 2.032244 -7.923122 -2.089166 -24.848681 -47.493915 -79.691813 38.898856 20.326597 26.471242 -0.000002 0.000001 -0.000002 
44.144058 32.560760 -22.308468 5.893657 -1.090992 -33.436361 -4.597590 2.427613 -11.349678 -0.172048 -1.278291 8.303108 2.342286 -4.727393 -2.824143 14.940387 15.277704 -0.970186 -0.000001 0.000001 -0.000000 -12.601190 -36.441320 -1.847786 -58.011816 -19.756035 -64.077611 -52.772951 12.526135 14.818836 -0.000002 -0.000000 0.000002 8.376774 32.195873 1.128925 53.557026 23.751749 -58.577055 29.438402 -11.344388 -6.899533 0.000002 0.000000 -0.000002 7.201551 -5.234079 28.336409 12.714027 8.217606 -79.353534 21.092874 -16.412878 25.118717 -0.000001 -0.000001 0.000000 1.951546 -7.797008 -2.432826 -25.517460 -47.623088 -80.402002 39.328516 20.194803 26.153286 0.000001 0.000007 -0.000000 
44.141869 32.521160 -22.337704 5.660938 -1.518646 -33.287904 -4.850207 2.528065 -11.205540 0.712953 -0.468233 8.585830 1.444508 -4.880825 -2.921333 15.753374 15.686631 -3.131345 0.000001 0.000001 0.000002 -12.554892 -37.517317 -2.163691 -58.131699 -18.714964 -63.612161 -53.478421 13.777668 13.612352 -0.000001 0.000001 -0.000002 8.980602 33.020632 0.706696 52.921860 22.831738 -57.999439 29.744801 -12.450310 -6.867518 0.000002 -0.000000 -0.000004 6.997242 -4.449141 28.125706 12.725266 8.236753 -80.398293 20.866086 -16.500006 24.526081 0.000002 0.000000 -0.000000 1.653510 -6.754523 -2.592374 -26.664428 -47.237452 -82.264567 39.568618 20.087591 25.293901 -0.000003 0.000001 -0.000003 
44.146324 32.483955 -22.369293 5.745016 -1.105288 -33.256024 -4.772078 2.525004 -10.973809 0.506371 -0.698035 8.491791 1.531795 -4.758362 -2.687361 16.506668 16.055879 -4.740909 0.000000 0.000002 0.000003 -12.753449 -38.324939 -2.478162 -58.040810 -17.987397 -62.976482 -54.023993 14.610191 13.132292 0.000002 -0.000002 -0.000001 9.378948 33.211122 0.365442 53.393829 22.582274 -59.188480 30.031474 -13.256461 -6.753113 0.000004 -0.000001 -0.000003 6.898506 -4.087100 28.058214 12.798958 8.458909 -81.448449 20.895326 -16.922741 24.236604 -0.000002 0.000001 -0.000001 1.675652 -6.536410 -2.800122 -27.251113 -46.500095 -83.218690 38.824376 19.969248 25.601354 -0.000001 -0.000003 0.000002 
44.160103 32.438923 -22.405769 5.423122 -1.112178 -33.357940 -4.605988 2.464073 -10.428265 0.773678 -0.462080 8.368672 1.153511 -4.190291 -2.494656 17.454647 16.617381 -6.501739 0.000002 0.000004 -0.000000 -12.783434 -38.727337 -2.866724 -58.095444 -17.385169 -62.959946 -54.491072 15.391046 12.631146 -0.000003 -0.000002 0.000001 9.969774 33.846634 0.016631 53.657775 22.174691 -59.976950 30.857343 -13.832666 -7.239952 0.000002 -0.000001 -0.000004 6.631090 -3.014291 27.890413 12.793686 8.410690 -82.547870 21.116756 -17.388077 24.240883 -0.000001 -0.000001 -0.000002 1.510655 -5.642860 -3.349202 -27.585848 -45.857183 -83.850449 37.314713 19.744969 26.263635 -0.000003 0.000001 0.000001 
